<svg width="1324" height="389" viewBox="0 0 1324 389" fill="none" xmlns="http://www.w3.org/2000/svg">
<path d="M569.381 278.04C555.275 278.04 544.249 274.364 536.302 267.014C528.554 259.464 524.68 249.034 524.68 235.723V110.86C524.68 97.9466 528.455 87.8145 536.004 80.4637C543.554 73.113 554.083 69.4376 567.593 69.4376H637.027C659.079 69.4376 676.165 74.4044 688.284 84.3378C700.403 94.0726 706.462 108.079 706.462 126.356C706.462 135.892 703.78 144.534 698.416 152.282C693.052 160.031 685.9 165.891 676.96 169.865V170.461C686.893 174.235 694.84 180.195 700.8 188.341C706.959 196.486 710.038 205.526 710.038 215.459C710.038 234.929 703.879 250.226 691.562 261.352C679.244 272.477 662.258 278.04 640.603 278.04H569.381ZM637.921 157.944C648.451 157.944 656.795 155.163 662.953 149.6C669.112 144.038 672.192 136.389 672.192 126.654C672.192 106.191 660.47 95.9599 637.027 95.9599H572.063C567.692 95.9599 564.215 97.3506 561.633 100.132C559.249 102.913 558.056 106.688 558.056 111.456V157.944H637.921ZM637.921 251.517C663.152 251.517 675.768 239.697 675.768 216.055C675.768 205.923 672.39 198.076 665.636 192.513C658.881 186.751 649.643 183.871 637.921 183.871H558.056V236.021C558.056 240.789 559.249 244.564 561.633 247.345C564.215 250.127 567.692 251.517 572.063 251.517H637.921Z" fill="white"/>
<path d="M762.591 281.02C757.426 281.02 753.353 279.629 750.373 276.848C747.592 274.066 746.201 270.192 746.201 265.226V144.832C746.201 139.866 747.592 135.992 750.373 133.21C753.353 130.429 757.426 129.038 762.591 129.038C767.757 129.038 771.829 130.429 774.809 133.21C777.988 135.992 779.577 139.866 779.577 144.832V265.226C779.577 270.192 777.988 274.066 774.809 276.848C771.829 279.629 767.757 281.02 762.591 281.02Z" fill="white"/>
<path d="M891.592 281.02C875.897 281.02 861.99 278.04 849.871 272.08C837.951 265.921 828.614 257.179 821.859 245.855C815.303 234.333 812.025 220.823 812.025 205.327C812.025 190.029 815.203 176.619 821.561 165.097C828.117 153.574 837.454 144.733 849.573 138.574C861.692 132.217 875.996 129.038 892.486 129.038C905.399 129.038 916.326 131.224 925.266 135.594C934.206 139.965 942.351 146.322 949.702 154.666L950 67.6496C950 62.6829 951.49 58.8089 954.47 56.0275C957.45 53.2461 961.523 51.8555 966.688 51.8555C971.854 51.8555 975.926 53.2461 978.906 56.0275C981.886 58.8089 983.376 62.6829 983.376 67.6496V265.226C983.376 270.192 981.886 274.066 978.906 276.848C975.926 279.629 971.854 281.02 966.688 281.02C961.722 281.02 957.649 279.629 954.47 276.848C951.49 273.868 950 269.994 950 265.226V254.795C936.292 272.278 916.822 281.02 891.592 281.02ZM896.36 254.199C913.048 254.199 926.16 249.829 935.696 241.087C945.232 232.346 950 220.326 950 205.029C950 189.731 945.033 177.712 935.1 168.971C925.365 160.229 912.452 155.858 896.36 155.858C880.466 155.858 868.049 160.329 859.109 169.269C850.169 178.01 845.699 190.029 845.699 205.327C845.699 221.022 850.169 233.141 859.109 241.683C868.049 250.027 880.466 254.199 896.36 254.199Z" fill="white"/>
<path d="M1073.08 281.02C1054.21 281.02 1039.11 276.55 1027.78 267.61C1016.46 258.669 1010.8 246.749 1010.8 231.849C1010.8 217.148 1016.76 205.426 1028.68 196.685C1040.8 187.943 1057.09 183.573 1077.55 183.573C1097.42 183.573 1112.91 188.142 1124.04 197.281V185.957C1124.04 176.023 1120.86 168.474 1114.5 163.309C1108.34 157.944 1099.2 155.262 1087.09 155.262C1070 155.262 1055.3 159.037 1042.98 166.587C1038.81 168.971 1035.03 170.163 1031.66 170.163C1028.08 170.163 1024.8 168.573 1021.82 165.395C1019.84 163.209 1018.84 160.627 1018.84 157.646C1018.84 152.878 1020.93 149.104 1025.1 146.322C1032.25 140.958 1041.29 136.786 1052.22 133.806C1063.15 130.628 1074.57 129.038 1086.49 129.038C1108.94 129.038 1126.52 134.104 1139.24 144.236C1151.95 154.368 1158.31 168.375 1158.31 186.255V266.12C1158.31 270.689 1156.82 274.364 1153.84 277.146C1150.86 279.728 1146.79 281.02 1141.62 281.02C1136.46 281.02 1132.38 279.728 1129.4 277.146C1126.62 274.563 1125.23 270.987 1125.23 266.418V260.755C1113.51 274.265 1096.13 281.02 1073.08 281.02ZM1080.23 256.583C1093.74 256.583 1104.47 254.398 1112.42 250.027C1120.36 245.458 1124.34 239.299 1124.34 231.551C1124.34 224.002 1120.46 218.042 1112.71 213.671C1104.97 209.3 1094.34 207.115 1080.83 207.115C1069.11 207.115 1059.97 209.3 1053.41 213.671C1047.05 218.042 1043.88 224.101 1043.88 231.849C1043.88 239.796 1046.96 245.955 1053.11 250.325C1059.47 254.497 1068.51 256.583 1080.23 256.583Z" fill="white"/>
<path d="M1205.69 281.02C1200.53 281.02 1196.46 279.629 1193.48 276.848C1190.5 274.066 1189.01 270.192 1189.01 265.226V144.832C1189.01 139.866 1190.4 135.992 1193.18 133.21C1196.16 130.429 1200.13 129.038 1205.1 129.038C1210.26 129.038 1214.24 130.429 1217.02 133.21C1220 135.992 1221.49 139.866 1221.49 144.832V157.348C1234.4 140.462 1251.39 132.018 1272.45 132.018H1279.3C1284.66 132.018 1288.84 133.21 1291.82 135.594C1295 137.978 1296.58 141.256 1296.58 145.428C1296.58 149.799 1295 153.176 1291.82 155.56C1288.84 157.746 1284.66 158.839 1279.3 158.839H1269.76C1255.26 158.839 1243.74 163.309 1235.2 172.249C1226.65 180.99 1222.38 193.01 1222.38 208.307V265.226C1222.38 269.994 1220.79 273.868 1217.61 276.848C1214.63 279.629 1210.66 281.02 1205.69 281.02Z" fill="white"/>
<circle cx="761.935" cy="81.8572" r="22.9119" fill="url(#paint0_linear_5316_1136)"/>
<path d="M546.481 336.661C546.308 335.123 545.593 333.932 544.337 333.087C543.081 332.231 541.5 331.804 539.593 331.804C538.229 331.804 537.048 332.02 536.052 332.453C535.056 332.876 534.281 333.461 533.729 334.208C533.187 334.944 532.917 335.784 532.917 336.726C532.917 337.516 533.101 338.199 533.469 338.773C533.848 339.347 534.341 339.829 534.947 340.219C535.565 340.598 536.225 340.917 536.929 341.177C537.633 341.426 538.31 341.632 538.96 341.794L542.209 342.639C543.27 342.899 544.359 343.251 545.474 343.695C546.59 344.139 547.624 344.724 548.577 345.45C549.53 346.175 550.299 347.074 550.884 348.146C551.48 349.219 551.777 350.502 551.777 351.996C551.777 353.881 551.29 355.554 550.315 357.016C549.351 358.478 547.949 359.632 546.108 360.477C544.278 361.321 542.063 361.744 539.463 361.744C536.973 361.744 534.817 361.348 532.998 360.558C531.178 359.767 529.754 358.646 528.725 357.195C527.696 355.733 527.128 354 527.02 351.996H532.056C532.153 353.199 532.543 354.2 533.225 355.002C533.918 355.792 534.801 356.383 535.873 356.773C536.956 357.152 538.142 357.341 539.431 357.341C540.85 357.341 542.111 357.119 543.216 356.675C544.332 356.22 545.209 355.592 545.848 354.791C546.487 353.978 546.806 353.031 546.806 351.948C546.806 350.962 546.525 350.155 545.962 349.527C545.409 348.899 544.657 348.379 543.704 347.968C542.761 347.556 541.694 347.193 540.503 346.879L536.572 345.807C533.908 345.081 531.796 344.015 530.236 342.607C528.687 341.199 527.913 339.336 527.913 337.018C527.913 335.101 528.433 333.428 529.473 331.998C530.512 330.569 531.92 329.459 533.696 328.668C535.473 327.867 537.476 327.466 539.707 327.466C541.96 327.466 543.947 327.861 545.669 328.652C547.402 329.443 548.767 330.531 549.763 331.917C550.759 333.293 551.279 334.874 551.323 336.661H546.481Z" fill="#ABABB5"/>
<path d="M562.244 327.921V361.191H557.386V327.921H562.244Z" fill="#ABABB5"/>
<path d="M579.533 361.695C577.074 361.695 574.957 361.17 573.181 360.119C571.415 359.058 570.051 357.569 569.087 355.652C568.134 353.724 567.657 351.466 567.657 348.877C567.657 346.321 568.134 344.069 569.087 342.119C570.051 340.17 571.394 338.648 573.116 337.554C574.849 336.461 576.874 335.914 579.191 335.914C580.599 335.914 581.964 336.146 583.285 336.612C584.607 337.078 585.792 337.809 586.843 338.805C587.894 339.802 588.722 341.096 589.329 342.688C589.935 344.269 590.238 346.191 590.238 348.455V350.177H570.403V346.538H585.478C585.478 345.26 585.218 344.128 584.699 343.143C584.179 342.146 583.448 341.361 582.506 340.787C581.574 340.213 580.48 339.926 579.224 339.926C577.859 339.926 576.668 340.262 575.65 340.933C574.643 341.594 573.863 342.46 573.311 343.533C572.769 344.594 572.498 345.747 572.498 346.993V349.836C572.498 351.504 572.791 352.922 573.376 354.092C573.971 355.262 574.8 356.155 575.861 356.773C576.923 357.379 578.163 357.682 579.581 357.682C580.502 357.682 581.341 357.552 582.099 357.292C582.857 357.022 583.513 356.621 584.065 356.09C584.617 355.56 585.04 354.904 585.332 354.125L589.93 354.953C589.561 356.307 588.901 357.493 587.948 358.511C587.005 359.518 585.82 360.303 584.39 360.866C582.971 361.419 581.352 361.695 579.533 361.695Z" fill="#ABABB5"/>
<path d="M606.382 361.695C603.924 361.695 601.806 361.17 600.03 360.119C598.265 359.058 596.9 357.569 595.936 355.652C594.983 353.724 594.507 351.466 594.507 348.877C594.507 346.321 594.983 344.069 595.936 342.119C596.9 340.17 598.243 338.648 599.965 337.554C601.698 336.461 603.723 335.914 606.041 335.914C607.449 335.914 608.814 336.146 610.135 336.612C611.456 337.078 612.642 337.809 613.693 338.805C614.743 339.802 615.572 341.096 616.178 342.688C616.785 344.269 617.088 346.191 617.088 348.455V350.177H597.252V346.538H612.328C612.328 345.26 612.068 344.128 611.548 343.143C611.028 342.146 610.297 341.361 609.355 340.787C608.424 340.213 607.33 339.926 606.073 339.926C604.709 339.926 603.518 340.262 602.499 340.933C601.492 341.594 600.712 342.46 600.16 343.533C599.619 344.594 599.348 345.747 599.348 346.993V349.836C599.348 351.504 599.64 352.922 600.225 354.092C600.821 355.262 601.649 356.155 602.711 356.773C603.772 357.379 605.012 357.682 606.431 357.682C607.351 357.682 608.191 357.552 608.949 357.292C609.707 357.022 610.362 356.621 610.915 356.09C611.467 355.56 611.889 354.904 612.182 354.125L616.779 354.953C616.411 356.307 615.75 357.493 614.797 358.511C613.855 359.518 612.669 360.303 611.239 360.866C609.821 361.419 608.202 361.695 606.382 361.695Z" fill="#ABABB5"/>
<path d="M622.477 370.549V336.239H627.221V340.284H627.627C627.909 339.764 628.315 339.163 628.845 338.48C629.376 337.798 630.113 337.202 631.055 336.693C631.997 336.174 633.242 335.914 634.791 335.914C636.806 335.914 638.603 336.423 640.185 337.441C641.766 338.459 643.006 339.926 643.905 341.843C644.815 343.76 645.269 346.067 645.269 348.764C645.269 351.46 644.82 353.773 643.921 355.7C643.022 357.617 641.787 359.096 640.217 360.135C638.647 361.164 636.854 361.679 634.84 361.679C633.324 361.679 632.084 361.424 631.12 360.915C630.167 360.406 629.419 359.811 628.878 359.128C628.336 358.446 627.919 357.839 627.627 357.309H627.335V370.549H622.477ZM627.237 348.715C627.237 350.469 627.492 352.007 628.001 353.329C628.51 354.65 629.246 355.684 630.21 356.431C631.174 357.168 632.354 357.536 633.751 357.536C635.203 357.536 636.416 357.152 637.39 356.383C638.365 355.603 639.102 354.547 639.6 353.215C640.109 351.883 640.363 350.383 640.363 348.715C640.363 347.069 640.114 345.59 639.616 344.28C639.129 342.969 638.392 341.935 637.407 341.177C636.432 340.419 635.214 340.04 633.751 340.04C632.344 340.04 631.152 340.403 630.177 341.128C629.214 341.854 628.483 342.867 627.984 344.166C627.486 345.466 627.237 346.982 627.237 348.715Z" fill="#ABABB5"/>
<path d="M662.818 370.549V336.239H667.562V340.284H667.968C668.25 339.764 668.656 339.163 669.187 338.48C669.717 337.798 670.454 337.202 671.396 336.693C672.338 336.174 673.584 335.914 675.132 335.914C677.147 335.914 678.945 336.423 680.526 337.441C682.107 338.459 683.347 339.926 684.246 341.843C685.156 343.76 685.611 346.067 685.611 348.764C685.611 351.46 685.161 353.773 684.262 355.7C683.363 357.617 682.129 359.096 680.558 360.135C678.988 361.164 677.196 361.679 675.181 361.679C673.665 361.679 672.425 361.424 671.461 360.915C670.508 360.406 669.761 359.811 669.219 359.128C668.678 358.446 668.261 357.839 667.968 357.309H667.676V370.549H662.818ZM667.578 348.715C667.578 350.469 667.833 352.007 668.342 353.329C668.851 354.65 669.587 355.684 670.551 356.431C671.515 357.168 672.696 357.536 674.093 357.536C675.544 357.536 676.757 357.152 677.732 356.383C678.706 355.603 679.443 354.547 679.941 353.215C680.45 351.883 680.705 350.383 680.705 348.715C680.705 347.069 680.455 345.59 679.957 344.28C679.47 342.969 678.733 341.935 677.748 341.177C676.773 340.419 675.555 340.04 674.093 340.04C672.685 340.04 671.493 340.403 670.519 341.128C669.555 341.854 668.824 342.867 668.326 344.166C667.827 345.466 667.578 346.982 667.578 348.715Z" fill="#ABABB5"/>
<path d="M701.807 361.695C699.349 361.695 697.232 361.17 695.455 360.119C693.69 359.058 692.325 357.569 691.362 355.652C690.408 353.724 689.932 351.466 689.932 348.877C689.932 346.321 690.408 344.069 691.362 342.119C692.325 340.17 693.668 338.648 695.39 337.554C697.123 336.461 699.148 335.914 701.466 335.914C702.874 335.914 704.239 336.146 705.56 336.612C706.881 337.078 708.067 337.809 709.118 338.805C710.168 339.802 710.997 341.096 711.603 342.688C712.21 344.269 712.513 346.191 712.513 348.455V350.177H692.677V346.538H707.753C707.753 345.26 707.493 344.128 706.973 343.143C706.453 342.146 705.722 341.361 704.78 340.787C703.849 340.213 702.755 339.926 701.499 339.926C700.134 339.926 698.943 340.262 697.925 340.933C696.917 341.594 696.138 342.46 695.585 343.533C695.044 344.594 694.773 345.747 694.773 346.993V349.836C694.773 351.504 695.065 352.922 695.65 354.092C696.246 355.262 697.074 356.155 698.136 356.773C699.197 357.379 700.437 357.682 701.856 357.682C702.777 357.682 703.616 357.552 704.374 357.292C705.132 357.022 705.787 356.621 706.34 356.09C706.892 355.56 707.314 354.904 707.607 354.125L712.204 354.953C711.836 356.307 711.175 357.493 710.222 358.511C709.28 359.518 708.094 360.303 706.665 360.866C705.246 361.419 703.627 361.695 701.807 361.695Z" fill="#ABABB5"/>
<path d="M725.164 361.744C723.583 361.744 722.153 361.451 720.875 360.866C719.597 360.271 718.585 359.41 717.837 358.283C717.101 357.157 716.733 355.776 716.733 354.141C716.733 352.733 717.003 351.574 717.545 350.664C718.086 349.755 718.818 349.034 719.738 348.504C720.659 347.973 721.688 347.572 722.825 347.302C723.962 347.031 725.121 346.825 726.301 346.684C727.796 346.511 729.009 346.37 729.94 346.262C730.872 346.143 731.548 345.953 731.971 345.693C732.393 345.433 732.604 345.011 732.604 344.426V344.312C732.604 342.894 732.204 341.794 731.402 341.015C730.612 340.235 729.431 339.845 727.861 339.845C726.225 339.845 724.937 340.208 723.994 340.933C723.063 341.648 722.419 342.444 722.061 343.321L717.496 342.282C718.038 340.766 718.828 339.542 719.868 338.61C720.919 337.668 722.126 336.986 723.491 336.563C724.855 336.13 726.29 335.914 727.796 335.914C728.792 335.914 729.848 336.033 730.964 336.271C732.09 336.498 733.14 336.921 734.115 337.538C735.101 338.155 735.908 339.038 736.536 340.186C737.164 341.323 737.478 342.802 737.478 344.621V361.191H732.734V357.78H732.539C732.225 358.408 731.754 359.025 731.126 359.632C730.498 360.238 729.691 360.742 728.706 361.143C727.72 361.543 726.539 361.744 725.164 361.744ZM726.22 357.845C727.563 357.845 728.711 357.579 729.664 357.049C730.628 356.518 731.359 355.825 731.857 354.969C732.366 354.103 732.621 353.177 732.621 352.191V348.975C732.447 349.148 732.112 349.311 731.613 349.462C731.126 349.603 730.568 349.728 729.94 349.836C729.312 349.933 728.7 350.025 728.104 350.112C727.509 350.188 727.011 350.253 726.61 350.307C725.668 350.426 724.807 350.626 724.027 350.908C723.258 351.19 722.641 351.596 722.175 352.126C721.72 352.646 721.493 353.339 721.493 354.206C721.493 355.408 721.937 356.318 722.825 356.935C723.713 357.542 724.845 357.845 726.22 357.845Z" fill="#ABABB5"/>
<path d="M754.458 361.695C752.043 361.695 749.964 361.148 748.22 360.054C746.487 358.949 745.155 357.428 744.224 355.489C743.292 353.551 742.827 351.33 742.827 348.829C742.827 346.294 743.303 344.058 744.256 342.119C745.209 340.17 746.552 338.648 748.285 337.554C750.018 336.461 752.06 335.914 754.41 335.914C756.305 335.914 757.995 336.266 759.478 336.97C760.962 337.663 762.159 338.637 763.068 339.894C763.989 341.15 764.536 342.618 764.709 344.296H759.982C759.722 343.127 759.126 342.119 758.195 341.275C757.274 340.43 756.04 340.007 754.491 340.007C753.137 340.007 751.951 340.365 750.933 341.08C749.926 341.784 749.141 342.791 748.578 344.101C748.014 345.401 747.733 346.939 747.733 348.715C747.733 350.534 748.009 352.105 748.561 353.426C749.114 354.747 749.893 355.771 750.901 356.496C751.919 357.222 753.116 357.585 754.491 357.585C755.412 357.585 756.245 357.417 756.993 357.081C757.751 356.735 758.384 356.242 758.893 355.603C759.413 354.964 759.776 354.195 759.982 353.296H764.709C764.536 354.91 764.011 356.35 763.133 357.617C762.256 358.885 761.081 359.881 759.608 360.607C758.146 361.332 756.43 361.695 754.458 361.695Z" fill="#ABABB5"/>
<path d="M780.658 361.695C778.2 361.695 776.082 361.17 774.306 360.119C772.541 359.058 771.176 357.569 770.212 355.652C769.259 353.724 768.783 351.466 768.783 348.877C768.783 346.321 769.259 344.069 770.212 342.119C771.176 340.17 772.519 338.648 774.241 337.554C775.974 336.461 777.999 335.914 780.317 335.914C781.725 335.914 783.09 336.146 784.411 336.612C785.732 337.078 786.918 337.809 787.969 338.805C789.019 339.802 789.848 341.096 790.454 342.688C791.061 344.269 791.364 346.191 791.364 348.455V350.177H771.528V346.538H786.604C786.604 345.26 786.344 344.128 785.824 343.143C785.304 342.146 784.573 341.361 783.631 340.787C782.7 340.213 781.606 339.926 780.349 339.926C778.985 339.926 777.794 340.262 776.775 340.933C775.768 341.594 774.989 342.46 774.436 343.533C773.895 344.594 773.624 345.747 773.624 346.993V349.836C773.624 351.504 773.916 352.922 774.501 354.092C775.097 355.262 775.925 356.155 776.987 356.773C778.048 357.379 779.288 357.682 780.707 357.682C781.627 357.682 782.467 357.552 783.225 357.292C783.983 357.022 784.638 356.621 785.191 356.09C785.743 355.56 786.165 354.904 786.458 354.125L791.055 354.953C790.687 356.307 790.026 357.493 789.073 358.511C788.131 359.518 786.945 360.303 785.515 360.866C784.097 361.419 782.478 361.695 780.658 361.695Z" fill="#ABABB5"/>
<path d="M808.629 336.239V340.137H794.528V336.239H808.629ZM798.394 361.191V333.347C798.394 331.787 798.735 330.493 799.417 329.464C800.1 328.424 801.004 327.65 802.13 327.141C803.257 326.621 804.481 326.361 805.802 326.361C806.777 326.361 807.611 326.443 808.304 326.605C808.997 326.757 809.511 326.897 809.847 327.027L808.71 330.959C808.482 330.894 808.19 330.818 807.833 330.731C807.475 330.634 807.042 330.585 806.533 330.585C805.352 330.585 804.508 330.878 803.999 331.462C803.5 332.047 803.251 332.892 803.251 333.997V361.191H798.394Z" fill="#ABABB5"/>
<path d="M829.447 350.843V336.239H834.321V361.191H829.544V356.87H829.285C828.711 358.202 827.79 359.312 826.523 360.2C825.266 361.078 823.702 361.516 821.828 361.516C820.225 361.516 818.806 361.164 817.572 360.46C816.348 359.746 815.384 358.69 814.68 357.292C813.987 355.895 813.64 354.168 813.64 352.11V336.239H818.498V351.525C818.498 353.226 818.969 354.579 819.911 355.587C820.853 356.594 822.077 357.098 823.582 357.098C824.492 357.098 825.396 356.87 826.295 356.415C827.205 355.96 827.958 355.273 828.553 354.352C829.16 353.431 829.458 352.262 829.447 350.843Z" fill="#ABABB5"/>
<path d="M845.705 327.921V361.191H840.847V327.921H845.705Z" fill="#ABABB5"/>
<path d="M857.097 327.921V361.191H852.239V327.921H857.097Z" fill="#ABABB5"/>
<path d="M866.702 370.549C865.976 370.549 865.315 370.489 864.72 370.37C864.124 370.262 863.68 370.143 863.388 370.013L864.557 366.032C865.445 366.271 866.236 366.374 866.929 366.341C867.622 366.309 868.234 366.049 868.765 365.561C869.306 365.074 869.783 364.278 870.194 363.173L870.795 361.516L861.666 336.239H866.864L873.183 355.603H873.443L879.763 336.239H884.978L874.694 364.522C874.218 365.821 873.611 366.921 872.875 367.819C872.138 368.729 871.261 369.412 870.243 369.866C869.225 370.321 868.045 370.549 866.702 370.549Z" fill="#ABABB5"/>
<path d="M891.179 361.5C890.291 361.5 889.528 361.186 888.889 360.558C888.25 359.919 887.93 359.15 887.93 358.251C887.93 357.363 888.25 356.605 888.889 355.977C889.528 355.338 890.291 355.018 891.179 355.018C892.067 355.018 892.831 355.338 893.47 355.977C894.109 356.605 894.428 357.363 894.428 358.251C894.428 358.847 894.277 359.394 893.973 359.892C893.681 360.379 893.291 360.769 892.804 361.061C892.316 361.354 891.775 361.5 891.179 361.5Z" fill="#ABABB5"/>
<path d="M912.895 361.191V327.921H925.079C927.44 327.921 929.395 328.311 930.944 329.091C932.493 329.859 933.651 330.905 934.42 332.226C935.189 333.536 935.574 335.015 935.574 336.661C935.574 338.047 935.319 339.217 934.81 340.17C934.301 341.112 933.619 341.87 932.763 342.444C931.919 343.007 930.987 343.419 929.969 343.679V344.004C931.074 344.058 932.151 344.415 933.202 345.076C934.263 345.726 935.141 346.652 935.834 347.854C936.527 349.056 936.873 350.518 936.873 352.24C936.873 353.941 936.473 355.468 935.671 356.821C934.881 358.164 933.657 359.231 932 360.022C930.343 360.801 928.225 361.191 925.648 361.191H912.895ZM917.915 356.886H925.16C927.565 356.886 929.287 356.421 930.327 355.489C931.366 354.558 931.886 353.394 931.886 351.996C931.886 350.946 931.621 349.982 931.09 349.105C930.559 348.228 929.801 347.529 928.816 347.009C927.841 346.489 926.682 346.229 925.339 346.229H917.915V356.886ZM917.915 342.314H924.641C925.767 342.314 926.78 342.098 927.679 341.664C928.588 341.231 929.308 340.625 929.839 339.845C930.381 339.054 930.651 338.123 930.651 337.051C930.651 335.675 930.169 334.522 929.206 333.591C928.242 332.659 926.763 332.193 924.771 332.193H917.915V342.314Z" fill="#ABABB5"/>
<path d="M942.437 361.191V336.239H947.295V361.191H942.437ZM944.89 332.388C944.046 332.388 943.32 332.107 942.714 331.544C942.118 330.97 941.82 330.287 941.82 329.497C941.82 328.695 942.118 328.013 942.714 327.45C943.32 326.876 944.046 326.589 944.89 326.589C945.735 326.589 946.455 326.876 947.051 327.45C947.658 328.013 947.961 328.695 947.961 329.497C947.961 330.287 947.658 330.97 947.051 331.544C946.455 332.107 945.735 332.388 944.89 332.388Z" fill="#ABABB5"/>
<path d="M963.171 361.679C961.156 361.679 959.358 361.164 957.777 360.135C956.207 359.096 954.972 357.617 954.073 355.7C953.185 353.773 952.741 351.46 952.741 348.764C952.741 346.067 953.19 343.76 954.089 341.843C954.999 339.926 956.245 338.459 957.826 337.441C959.407 336.423 961.199 335.914 963.203 335.914C964.752 335.914 965.997 336.174 966.939 336.693C967.893 337.202 968.629 337.798 969.149 338.48C969.68 339.163 970.091 339.764 970.383 340.284H970.676V327.921H975.533V361.191H970.79V357.309H970.383C970.091 357.839 969.669 358.446 969.116 359.128C968.575 359.811 967.828 360.406 966.874 360.915C965.921 361.424 964.687 361.679 963.171 361.679ZM964.243 357.536C965.64 357.536 966.82 357.168 967.784 356.431C968.759 355.684 969.495 354.65 969.994 353.329C970.503 352.007 970.757 350.469 970.757 348.715C970.757 346.982 970.508 345.466 970.01 344.166C969.512 342.867 968.781 341.854 967.817 341.128C966.853 340.403 965.662 340.04 964.243 340.04C962.781 340.04 961.562 340.419 960.588 341.177C959.613 341.935 958.876 342.969 958.378 344.28C957.891 345.59 957.647 347.069 957.647 348.715C957.647 350.383 957.896 351.883 958.394 353.215C958.893 354.547 959.629 355.603 960.604 356.383C961.589 357.152 962.802 357.536 964.243 357.536Z" fill="#ABABB5"/>
<path d="M989.728 361.744C988.146 361.744 986.717 361.451 985.439 360.866C984.161 360.271 983.148 359.41 982.401 358.283C981.665 357.157 981.296 355.776 981.296 354.141C981.296 352.733 981.567 351.574 982.109 350.664C982.65 349.755 983.381 349.034 984.302 348.504C985.222 347.973 986.251 347.572 987.388 347.302C988.525 347.031 989.684 346.825 990.865 346.684C992.359 346.511 993.572 346.37 994.504 346.262C995.435 346.143 996.112 345.953 996.534 345.693C996.957 345.433 997.168 345.011 997.168 344.426V344.312C997.168 342.894 996.767 341.794 995.966 341.015C995.175 340.235 993.995 339.845 992.424 339.845C990.789 339.845 989.5 340.208 988.558 340.933C987.627 341.648 986.982 342.444 986.625 343.321L982.06 342.282C982.601 340.766 983.392 339.542 984.432 338.61C985.482 337.668 986.69 336.986 988.054 336.563C989.419 336.13 990.854 335.914 992.359 335.914C993.356 335.914 994.412 336.033 995.527 336.271C996.654 336.498 997.704 336.921 998.679 337.538C999.664 338.155 1000.47 339.038 1001.1 340.186C1001.73 341.323 1002.04 342.802 1002.04 344.621V361.191H997.298V357.78H997.103C996.789 358.408 996.318 359.025 995.69 359.632C995.061 360.238 994.255 360.742 993.269 361.143C992.284 361.543 991.103 361.744 989.728 361.744ZM990.784 357.845C992.127 357.845 993.275 357.579 994.228 357.049C995.191 356.518 995.923 355.825 996.421 354.969C996.93 354.103 997.184 353.177 997.184 352.191V348.975C997.011 349.148 996.675 349.311 996.177 349.462C995.69 349.603 995.132 349.728 994.504 349.836C993.876 349.933 993.264 350.025 992.668 350.112C992.072 350.188 991.574 350.253 991.173 350.307C990.231 350.426 989.37 350.626 988.59 350.908C987.822 351.19 987.204 351.596 986.738 352.126C986.284 352.646 986.056 353.339 986.056 354.206C986.056 355.408 986.5 356.318 987.388 356.935C988.276 357.542 989.408 357.845 990.784 357.845Z" fill="#ABABB5"/>
<path d="M1008.51 361.191V336.239H1013.21V340.202H1013.47C1013.92 338.859 1014.72 337.803 1015.87 337.035C1017.03 336.255 1018.34 335.865 1019.8 335.865C1020.11 335.865 1020.46 335.876 1020.87 335.897C1021.3 335.919 1021.63 335.946 1021.86 335.979V340.625C1021.67 340.571 1021.32 340.511 1020.83 340.446C1020.33 340.37 1019.83 340.332 1019.33 340.332C1018.18 340.332 1017.16 340.576 1016.26 341.063C1015.37 341.54 1014.67 342.206 1014.15 343.062C1013.63 343.906 1013.37 344.87 1013.37 345.953V361.191H1008.51Z" fill="#ABABB5"/>
<path d="M1038.18 361.191V336.239H1043.03V361.191H1038.18ZM1040.63 332.388C1039.78 332.388 1039.06 332.107 1038.45 331.544C1037.86 330.97 1037.56 330.287 1037.56 329.497C1037.56 328.695 1037.86 328.013 1038.45 327.45C1039.06 326.876 1039.78 326.589 1040.63 326.589C1041.47 326.589 1042.19 326.876 1042.79 327.45C1043.4 328.013 1043.7 328.695 1043.7 329.497C1043.7 330.287 1043.4 330.97 1042.79 331.544C1042.19 332.107 1041.47 332.388 1040.63 332.388Z" fill="#ABABB5"/>
<path d="M1068.27 342.331L1063.86 343.11C1063.68 342.547 1063.39 342.011 1062.99 341.502C1062.6 340.993 1062.07 340.576 1061.39 340.251C1060.72 339.926 1059.88 339.764 1058.88 339.764C1057.5 339.764 1056.35 340.072 1055.43 340.69C1054.51 341.296 1054.05 342.081 1054.05 343.045C1054.05 343.879 1054.36 344.551 1054.98 345.06C1055.59 345.569 1056.59 345.986 1057.97 346.311L1061.93 347.22C1064.23 347.751 1065.94 348.569 1067.06 349.673C1068.19 350.778 1068.75 352.213 1068.75 353.978C1068.75 355.473 1068.32 356.805 1067.45 357.975C1066.6 359.134 1065.4 360.043 1063.86 360.704C1062.34 361.365 1060.57 361.695 1058.55 361.695C1055.76 361.695 1053.48 361.099 1051.71 359.908C1049.95 358.706 1048.86 357 1048.46 354.791L1053.16 354.076C1053.45 355.3 1054.05 356.226 1054.96 356.854C1055.87 357.471 1057.06 357.78 1058.52 357.78C1060.11 357.78 1061.38 357.45 1062.34 356.789C1063.29 356.117 1063.77 355.3 1063.77 354.336C1063.77 353.556 1063.47 352.901 1062.89 352.37C1062.31 351.839 1061.43 351.439 1060.24 351.168L1056.02 350.242C1053.69 349.711 1051.97 348.867 1050.85 347.708C1049.75 346.549 1049.19 345.081 1049.19 343.305C1049.19 341.832 1049.61 340.544 1050.43 339.439C1051.25 338.334 1052.39 337.473 1053.84 336.856C1055.29 336.228 1056.95 335.914 1058.83 335.914C1061.52 335.914 1063.65 336.498 1065.2 337.668C1066.74 338.827 1067.77 340.381 1068.27 342.331Z" fill="#ABABB5"/>
<path d="M1091.61 361.191L1084.27 336.239H1089.29L1094.18 354.563H1094.42L1099.33 336.239H1104.35L1109.22 354.482H1109.46L1114.32 336.239H1119.34L1112.01 361.191H1107.06L1101.99 343.175H1101.62L1096.55 361.191H1091.61Z" fill="#ABABB5"/>
<path d="M1131.21 361.744C1129.63 361.744 1128.2 361.451 1126.92 360.866C1125.65 360.271 1124.63 359.41 1123.89 358.283C1123.15 357.157 1122.78 355.776 1122.78 354.141C1122.78 352.733 1123.05 351.574 1123.59 350.664C1124.13 349.755 1124.87 349.034 1125.79 348.504C1126.71 347.973 1127.74 347.572 1128.87 347.302C1130.01 347.031 1131.17 346.825 1132.35 346.684C1133.84 346.511 1135.06 346.37 1135.99 346.262C1136.92 346.143 1137.6 345.953 1138.02 345.693C1138.44 345.433 1138.65 345.011 1138.65 344.426V344.312C1138.65 342.894 1138.25 341.794 1137.45 341.015C1136.66 340.235 1135.48 339.845 1133.91 339.845C1132.27 339.845 1130.98 340.208 1130.04 340.933C1129.11 341.648 1128.47 342.444 1128.11 343.321L1123.54 342.282C1124.09 340.766 1124.88 339.542 1125.92 338.61C1126.97 337.668 1128.17 336.986 1129.54 336.563C1130.9 336.13 1132.34 335.914 1133.84 335.914C1134.84 335.914 1135.9 336.033 1137.01 336.271C1138.14 336.498 1139.19 336.921 1140.16 337.538C1141.15 338.155 1141.96 339.038 1142.58 340.186C1143.21 341.323 1143.53 342.802 1143.53 344.621V361.191H1138.78V357.78H1138.59C1138.27 358.408 1137.8 359.025 1137.17 359.632C1136.55 360.238 1135.74 360.742 1134.75 361.143C1133.77 361.543 1132.59 361.744 1131.21 361.744ZM1132.27 357.845C1133.61 357.845 1134.76 357.579 1135.71 357.049C1136.68 356.518 1137.41 355.825 1137.91 354.969C1138.41 354.103 1138.67 353.177 1138.67 352.191V348.975C1138.5 349.148 1138.16 349.311 1137.66 349.462C1137.17 349.603 1136.62 349.728 1135.99 349.836C1135.36 349.933 1134.75 350.025 1134.15 350.112C1133.56 350.188 1133.06 350.253 1132.66 350.307C1131.72 350.426 1130.86 350.626 1130.08 350.908C1129.31 351.19 1128.69 351.596 1128.22 352.126C1127.77 352.646 1127.54 353.339 1127.54 354.206C1127.54 355.408 1127.99 356.318 1128.87 356.935C1129.76 357.542 1130.89 357.845 1132.27 357.845Z" fill="#ABABB5"/>
<path d="M1161.64 336.239V340.137H1148.01V336.239H1161.64ZM1151.67 330.26H1156.53V353.865C1156.53 354.807 1156.67 355.516 1156.95 355.993C1157.23 356.459 1157.59 356.778 1158.04 356.951C1158.49 357.114 1158.99 357.195 1159.52 357.195C1159.91 357.195 1160.25 357.168 1160.54 357.114C1160.83 357.06 1161.06 357.016 1161.22 356.984L1162.1 360.996C1161.82 361.105 1161.42 361.213 1160.9 361.321C1160.38 361.44 1159.73 361.505 1158.95 361.516C1157.67 361.538 1156.48 361.31 1155.37 360.834C1154.27 360.357 1153.38 359.621 1152.69 358.625C1152.01 357.628 1151.67 356.377 1151.67 354.872V330.26Z" fill="#ABABB5"/>
<path d="M1177.26 361.695C1174.84 361.695 1172.77 361.148 1171.02 360.054C1169.29 358.949 1167.96 357.428 1167.03 355.489C1166.09 353.551 1165.63 351.33 1165.63 348.829C1165.63 346.294 1166.1 344.058 1167.06 342.119C1168.01 340.17 1169.35 338.648 1171.09 337.554C1172.82 336.461 1174.86 335.914 1177.21 335.914C1179.11 335.914 1180.8 336.266 1182.28 336.97C1183.76 337.663 1184.96 338.637 1185.87 339.894C1186.79 341.15 1187.34 342.618 1187.51 344.296H1182.78C1182.52 343.127 1181.93 342.119 1181 341.275C1180.08 340.43 1178.84 340.007 1177.29 340.007C1175.94 340.007 1174.75 340.365 1173.73 341.08C1172.73 341.784 1171.94 342.791 1171.38 344.101C1170.82 345.401 1170.53 346.939 1170.53 348.715C1170.53 350.534 1170.81 352.105 1171.36 353.426C1171.92 354.747 1172.69 355.771 1173.7 356.496C1174.72 357.222 1175.92 357.585 1177.29 357.585C1178.21 357.585 1179.05 357.417 1179.79 357.081C1180.55 356.735 1181.19 356.242 1181.69 355.603C1182.21 354.964 1182.58 354.195 1182.78 353.296H1187.51C1187.34 354.91 1186.81 356.35 1185.93 357.617C1185.06 358.885 1183.88 359.881 1182.41 360.607C1180.95 361.332 1179.23 361.695 1177.26 361.695Z" fill="#ABABB5"/>
<path d="M1197.56 346.376V361.191H1192.71V327.921H1197.5V340.3H1197.81C1198.39 338.957 1199.28 337.89 1200.49 337.1C1201.69 336.309 1203.26 335.914 1205.2 335.914C1206.91 335.914 1208.4 336.266 1209.68 336.97C1210.97 337.674 1211.97 338.724 1212.67 340.121C1213.39 341.507 1213.74 343.24 1213.74 345.32V361.191H1208.89V345.904C1208.89 344.074 1208.41 342.655 1207.47 341.648C1206.53 340.63 1205.22 340.121 1203.54 340.121C1202.39 340.121 1201.36 340.365 1200.45 340.852C1199.56 341.34 1198.85 342.054 1198.33 342.997C1197.82 343.928 1197.56 345.054 1197.56 346.376Z" fill="#ABABB5"/>
<path d="M1220.22 361.191V336.239H1225.08V361.191H1220.22ZM1222.68 332.388C1221.83 332.388 1221.11 332.107 1220.5 331.544C1219.91 330.97 1219.61 330.287 1219.61 329.497C1219.61 328.695 1219.91 328.013 1220.5 327.45C1221.11 326.876 1221.83 326.589 1222.68 326.589C1223.52 326.589 1224.24 326.876 1224.84 327.45C1225.44 328.013 1225.75 328.695 1225.75 329.497C1225.75 330.287 1225.44 330.97 1224.84 331.544C1224.24 332.107 1223.52 332.388 1222.68 332.388Z" fill="#ABABB5"/>
<path d="M1236.47 346.376V361.191H1231.62V336.239H1236.28V340.3H1236.59C1237.16 338.979 1238.06 337.917 1239.28 337.116C1240.52 336.314 1242.07 335.914 1243.95 335.914C1245.65 335.914 1247.14 336.271 1248.41 336.986C1249.69 337.69 1250.68 338.74 1251.39 340.137C1252.09 341.534 1252.44 343.262 1252.44 345.32V361.191H1247.59V345.904C1247.59 344.096 1247.11 342.682 1246.17 341.664C1245.23 340.636 1243.94 340.121 1242.29 340.121C1241.16 340.121 1240.16 340.365 1239.28 340.852C1238.42 341.34 1237.73 342.054 1237.22 342.997C1236.72 343.928 1236.47 345.054 1236.47 346.376Z" fill="#ABABB5"/>
<path d="M1269.42 371.069C1267.44 371.069 1265.73 370.809 1264.3 370.289C1262.88 369.769 1261.72 369.081 1260.83 368.226C1259.93 367.37 1259.26 366.433 1258.81 365.415L1262.99 363.693C1263.28 364.17 1263.67 364.673 1264.16 365.204C1264.65 365.745 1265.33 366.206 1266.17 366.585C1267.03 366.964 1268.13 367.153 1269.47 367.153C1271.31 367.153 1272.83 366.704 1274.03 365.805C1275.24 364.917 1275.84 363.498 1275.84 361.549V356.643H1275.53C1275.24 357.173 1274.81 357.764 1274.26 358.413C1273.72 359.063 1272.97 359.626 1272.02 360.103C1271.07 360.579 1269.83 360.818 1268.3 360.818C1266.33 360.818 1264.55 360.357 1262.97 359.437C1261.4 358.505 1260.15 357.135 1259.23 355.327C1258.32 353.507 1257.87 351.271 1257.87 348.617C1257.87 345.964 1258.32 343.69 1259.22 341.794C1260.13 339.899 1261.37 338.448 1262.95 337.441C1264.54 336.423 1266.33 335.914 1268.33 335.914C1269.88 335.914 1271.13 336.174 1272.08 336.693C1273.04 337.202 1273.78 337.798 1274.31 338.48C1274.85 339.163 1275.27 339.764 1275.56 340.284H1275.92V336.239H1280.68V361.744C1280.68 363.888 1280.18 365.648 1279.18 367.023C1278.19 368.399 1276.84 369.417 1275.14 370.078C1273.45 370.738 1271.54 371.069 1269.42 371.069ZM1269.37 356.789C1270.77 356.789 1271.95 356.464 1272.91 355.814C1273.89 355.154 1274.62 354.211 1275.12 352.987C1275.63 351.753 1275.89 350.274 1275.89 348.552C1275.89 346.874 1275.64 345.395 1275.14 344.117C1274.64 342.84 1273.91 341.843 1272.94 341.128C1271.98 340.403 1270.79 340.04 1269.37 340.04C1267.91 340.04 1266.69 340.419 1265.72 341.177C1264.74 341.924 1264 342.942 1263.51 344.231C1263.02 345.52 1262.78 346.96 1262.78 348.552C1262.78 350.188 1263.02 351.623 1263.52 352.857C1264.02 354.092 1264.76 355.056 1265.73 355.749C1266.72 356.442 1267.93 356.789 1269.37 356.789Z" fill="#ABABB5"/>
<path d="M1290.39 361.5C1289.5 361.5 1288.74 361.186 1288.1 360.558C1287.46 359.919 1287.14 359.15 1287.14 358.251C1287.14 357.363 1287.46 356.605 1288.1 355.977C1288.74 355.338 1289.5 355.018 1290.39 355.018C1291.28 355.018 1292.04 355.338 1292.68 355.977C1293.32 356.605 1293.64 357.363 1293.64 358.251C1293.64 358.847 1293.49 359.394 1293.19 359.892C1292.89 360.379 1292.5 360.769 1292.02 361.061C1291.53 361.354 1290.99 361.5 1290.39 361.5Z" fill="#ABABB5"/>
<path d="M93.3789 161.917C72.9476 157.389 17.5052 193.734 29.7452 240.235H213.304C230.433 240.235 232.881 269.605 213.304 269.605H81.1411C66.1469 274.306 64.0067 291.623 81.1411 296.527H247.568C246.569 282.057 250.985 277.342 269.595 276.947H372.388C445.809 276.947 445.809 193.734 372.388 193.734C361.148 145.588 344.196 129.473 284.28 132.547C276.83 100.469 268.496 84.4852 230.436 66.4663C183.957 54.1479 160.29 55.695 125.195 83.5984C98.9514 108.929 92.9361 126.438 93.3789 161.917Z" fill="url(#paint1_linear_5316_1136)"/>
<path d="M320.991 345.476H183.934C161.367 345.476 161.367 321.001 183.934 321.001H247.568C259.164 320.536 263.913 317.403 269.595 308.764H357.703C369.941 308.764 369.941 325.896 357.703 325.896H330.781C320.235 331.444 318.687 335.917 320.991 345.476Z" fill="url(#paint2_linear_5316_1136)"/>
<path d="M98.2733 340.581H125.195C139.808 340.581 139.306 325.896 125.195 325.896H98.2733C82.149 325.896 82.149 340.581 98.2733 340.581Z" fill="url(#paint3_linear_5316_1136)"/>
<path d="M320.622 59.5157C320.023 59.552 319.415 59.5858 318.8 59.6173C319.415 59.5789 320.023 59.545 320.622 59.5157C352.269 57.5987 361.849 48.7229 361.417 17C362.153 39.1633 368.729 49.4503 404.035 59.6173C374.055 60.7338 365.04 71.7311 361.417 102.235C362.966 70.0337 353.473 57.911 320.622 59.5157Z" fill="url(#paint4_linear_5316_1136)"/>
<defs>
<linearGradient id="paint0_linear_5316_1136" x1="761.935" y1="58.9453" x2="761.935" y2="104.769" gradientUnits="userSpaceOnUse">
<stop stop-color="#8B5CF6"/>
<stop offset="1" stop-color="#38BDF8"/>
</linearGradient>
<linearGradient id="paint1_linear_5316_1136" x1="227.727" y1="59.1152" x2="227.727" y2="345.476" gradientUnits="userSpaceOnUse">
<stop stop-color="#8B5CF6"/>
<stop offset="1" stop-color="#38BDF8"/>
</linearGradient>
<linearGradient id="paint2_linear_5316_1136" x1="227.727" y1="59.1152" x2="227.727" y2="345.476" gradientUnits="userSpaceOnUse">
<stop stop-color="#8B5CF6"/>
<stop offset="1" stop-color="#38BDF8"/>
</linearGradient>
<linearGradient id="paint3_linear_5316_1136" x1="227.727" y1="59.1152" x2="227.727" y2="345.476" gradientUnits="userSpaceOnUse">
<stop stop-color="#8B5CF6"/>
<stop offset="1" stop-color="#38BDF8"/>
</linearGradient>
<linearGradient id="paint4_linear_5316_1136" x1="361.417" y1="17" x2="361.417" y2="102.235" gradientUnits="userSpaceOnUse">
<stop stop-color="#8B5CF6"/>
<stop offset="1" stop-color="#38BDF8"/>
</linearGradient>
</defs>
</svg>
